<svg id="Layer_1" data-name="Layer 1" xmlns="http://www.w3.org/2000/svg" viewBox="0 0 559.51 580.59"><defs><style>.cls-1,.cls-2,.cls-3{fill:none;stroke-miterlimit:10;stroke-width:6px;}.cls-1{stroke:#fff;}.cls-2{stroke:#b190ba;}.cls-3{stroke:#b83118;}</style></defs><title>doc</title><polyline class="cls-1" points="0 577.59 0 577.59 0 577.59"/><path class="cls-2" d="M770.58,444.57" transform="translate(0 -214.41)"/><path class="cls-2" d="M694.65,386.8" transform="translate(0 -214.41)"/><path class="cls-2" d="M494.66,499.61H108.82l1.52-282.14,105.35,1.82,47.06,41,232,2.7Z" transform="translate(0 -214.41)"/><path class="cls-2" d="M104.3,514.29" transform="translate(0 -214.41)"/><path class="cls-2" d="M134.55,285.93" transform="translate(0 -214.41)"/><path class="cls-2" d="M159.31,297.61" transform="translate(0 -214.41)"/><line class="cls-2" x1="108.82" y1="285.2" x2="159.31" y2="83.2"/><path class="cls-3" d="M328.77,245.53" transform="translate(0 -214.41)"/><path class="cls-3" d="M478.11,393.09" transform="translate(0 -214.41)"/><line class="cls-2" x1="159.31" y1="83.2" x2="556.51" y2="83.2"/><line class="cls-2" x1="494.66" y1="285.2" x2="556.51" y2="83.2"/><line class="cls-2" x1="144.08" y1="144.12" x2="144.08" y2="144.12"/><ellipse class="cls-2" cx="159.31" cy="83.2" rx="0.49" ry="0.57"/><ellipse class="cls-2" cx="555.45" cy="84.65" rx="1.07" ry="1.45"/></svg>