<svg id="Layer_1" data-name="Layer 1" xmlns="http://www.w3.org/2000/svg" viewBox="0 0 596.97 723.94"><defs><style>.cls-1{fill:none;stroke:#f4c8a4;stroke-miterlimit:10;stroke-width:6px;}</style></defs><title>india</title><path class="cls-1" d="M207.66,755c-12-.13-19.9-14.79-22.73-20.07-6.64-12.37-8-26.21-8-26.21-.71-7.36.19-11-2.28-16.55-2.78-6.27-5.69-5.64-9.09-12.45s-1.77-9.79-4.54-16.52c-3.13-7.58-7.28-8.87-11.37-13.79-9.95-12-2.49-25-10.23-49.67-3.65-11.63-5.43-9.11-14.09-29-5.85-13.4-9-23.7-13.18-37.25-11.64-38.07-18-59.45-10.23-70.36,2.54-3.58,6.37-5.71,6.82-11,.63-7.42-5.68-16.56-5.68-16.56v-1.37c0-2.26,1.08-24.62,0-24.84-.88-.17-.13,15-7.65,26.46-6.88,10.43-20.12,16.88-31.79,13.69-6-1.65-12.74-10.23-26.15-27.39-9.06-11.58-11.88-16.71-10.77-18.67,1.25-2.22,6.24,1.85,14.36.62,8.4-1.27,15.36-7.49,14.87-9.33s-8.73,2.89-19,.62c-16.76-3.71-28.51-24-26.21-28.63,1.42-2.82,7.81,1.08,12.87-4.36,2.47-2.65,1.71-4.38,3.59-6.22,5-4.87,13.41,4.24,26.67,5.6,4,.41,16,1.64,20.5-6.22,5-8.76-.31-27.19-9.22-33-4.11-2.67-8.26-2.18-9.23-5.6-1.35-4.73,5.45-9.57,4.1-13.7-1.46-4.45-10.16-1.14-12.82-6.22-3-5.81,4.54-17.45,6.15-19.92,4.85-7.44,13.86-16.7,18.46-13.69C75.11,265.52,73,271.64,76,274c4.85,3.75,12.76-10.26,33.84-24.27,6.36-4.23,10.23-6,13.33-11.83,3.73-7,2.21-12.06,6.67-17.42,4-4.76,6.37-2.23,11.79-6.85,6.08-5.18,9.89-14.19,10.77-22.41,1-9-2.17-11.53,0-16.18,3.93-8.43,16.94-5.85,17.43-10,.28-2.26-3.47-4.7-9.23-8.09-19.7-11.6-22.56-10.5-26.15-15.56-6.06-8.56-6.6-24.05-1.53-33,5.17-9.13,13.66-7,14.86-13.69,1.45-8-8.9-21.51-18.45-21.78-3.37-.1-6,1.46-8.21-.63-2.82-2.64-2.76-9-2-12.44,3.21-15.75,31.24-29.58,48.2-19.3,7.71,4.68,8.49,11.52,19,15.56,5.9,2.28,11.17,2.23,13.84,7.47,2.23,4.38.52,8.28,3.08,10.58,3.38,3,8.82-1.58,10.77,1.25,1.51,2.18-1.18,5.79,0,7.47C216.09,86,227,75.67,244.15,71.69c5.73-1.33,8.77-1.16,11.28-.62,7.33,1.59,15.71,7.59,15.89,14.31,0,1.17-.66,3.08-2.05,6.85a93.3,93.3,0,0,1-4.76,11.41c-4.26,8.22-7,13.54-11.65,14.73s-7.11-2.81-9.74-.62-3.24,9.26-1,13.69c2,4,4.78,3,8.2,7.47.41.53,5.33,7.06,4.1,12.45-1.76,7.76-14.38,4.86-17.94,13.69-3.25,8.06,3.69,19.27,4.1,19.92,2.7,4.25,5.85,6.57,21.53,14.31,15.07,7.44,20.34,9.34,21,14.32.5,3.67-1.65,7.91-4.11,10-3.81,3.19-7.18.11-10.25,2.49-4.18,3.23-5.32,14.64-2.05,22.4,4.56,10.86,14.44,6.76,35.24,18.48,17.19,9.68,18.06,16.76,28,16.53,9.15-.22,14.94-6.32,22.43-1.95,4,2.35,4.16,5.16,8,9.73,3.29,3.91,8.43,8.07,34.44,12.64,16.05,2.82,24.12,4.16,26.43,1,6.57-9-8.85-30.88-1.6-40.84,3.4-4.67,10.82-5.42,14.42-1.94,4.81,4.65-.14,14,3.2,22.36,7.52,18.68,51.88,19.46,60.08,1,.21-.47,3.38-7.86.8-13.61-2.32-5.17-8.77-7.81-11.1-7.75,0,0-.28,0-.28,0,0-.24,13.5,2.38,21.79-4.86,8.08-7.06,5.13-18.16,12.82-22.36,5.91-3.23,10,2.05,14.42-1.95,5.32-4.82,2.16-15.05,6.41-17.5,4.5-2.6,9.27,8.18,16.82,6.8,7-1.27,7.9-11.45,14.42-11.66,4.52-.15,9.46,4.58,10.41,9.72,1.22,6.61-4.72,10.94-3.2,14.59,2.4,5.77,19.23-.57,20.69,3.88,1,3.21-7.36,7.45-7.08,14.59.26,6.67,7.86,9.57,7.08,12.64-.9,3.51-10.79-.53-22.3,3.89-2.53,1-14.75,6-19.22,18.47-2.91,8.08.44,10.95,0,25.29-.13,4.23-1.33,33.23-13.62,39.86-6.71,3.63-12.6-1.66-15.22,2.92s.16,14.71,2.3,20.14l.11.28c4.92,12.53-2.54,38.45-7.21,37.92-5.44-.62-3.83-36.62-13.62-38.89-1.87-.44-3.81.43-7.21,1.94-8,3.54-9.25,8.45-12,7.78-5.38-1.3-9.58-22.12-3.2-30.14,2.63-3.31,5.35-2.3,7.21-5.84,2.64-5,1.27-14.79-3.2-19.44-9.33-9.69-27.87,7.37-35.25-1.95-3.64-4.59-.42-10.36-4.8-15.56-5.64-6.68-17.93-5.4-20,0-2.17,5.58,7.72,12.54,5.61,20.42-2,7.43-12.36,7.28-12.57,12.37-.18,4.31,7.3,4.39,12.57,13.89,3.91,7.05,5.6,17.5,5.6,17.5-2.37-12.38,11.79,30.64,3.21,37.92-2.1,1.78-3.66-1.05-10.42-1-6.29.07-10.89,2.59-16.82,5.83-7.52,4.13-11.29,6.19-12.81,10.7-2,6,1.88,9.61,1.6,15.56-.6,12.75-19.49,15.28-40.85,33.06a135.9,135.9,0,0,0-32,36.94c-8.85,15.08-12.41,27.92-23.23,31.12-5.54,1.64-10.36,0-15.22,4.86s-2.71,8.87-7.21,14.59c-6.35,8.06-13.7,4.12-19.23,11.66-3.08,4.22-3.51,9.17-4,15.56-1.73,22.55,8.77,28.83,6.05,44.36-2.3,13.15-10.34,11.68-12.31,25.59-2.12,15,5.92,26.07,1.45,31.18-3.18,3.63-8.54-.51-13.61,4.86a18.4,18.4,0,0,0-4,7.78c-2,7.46,1.23,11.7-.8,14.58-2.47,3.5-7.74-2-12.82,1-6.21,3.68-3.17,14.82-10.41,23.34A19.24,19.24,0,0,1,207.66,755Z" transform="translate(-7.51 -34.03)"/></svg>