<?xml version="1.0" encoding="UTF-8" standalone="no"?><!-- Generator: Gravit.io --><svg xmlns="http://www.w3.org/2000/svg" xmlns:xlink="http://www.w3.org/1999/xlink" style="isolation:isolate" viewBox="0 0 595.276 841.89" width="595.276pt" height="841.89pt"><defs><clipPath id="_clipPath_uhxP1Xc782EutbvU10wEv6ms3Oswx3UB"><rect width="595.276" height="841.89"/></clipPath></defs><g clip-path="url(#_clipPath_uhxP1Xc782EutbvU10wEv6ms3Oswx3UB)"><clipPath id="_clipPath_2BkK2BWj4IonKM24Cq9uJ5hmqtC8VOHE"><path d=" M 0 0 L 595.276 0 L 595.276 841.89 L 0 841.89 L 0 0 Z " fill="rgb(255,255,255)"/></clipPath><g clip-path="url(#_clipPath_2BkK2BWj4IonKM24Cq9uJ5hmqtC8VOHE)"><path d=" M 120.868 402.124 C 120.868 402.124 112.198 407.389 107.952 409.377 C 103.705 411.364 84.154 417.425 78.846 423.584 C 73.8 429.441 70.884 439.878 68.229 444.547 C 65.576 449.217 63.452 452.198 63.452 452.198 C 63.452 452.198 66.991 448.323 69.379 444.15 C 71.768 439.978 75.396 429.248 80.438 424.28 C 85.48 419.312 101.406 413.352 108.128 410.47 C 114.851 407.589 121.576 403.714 121.576 403.714 L 120.868 402.124 Z " fill="rgb(205,151,3)"/><path d=" M 75.75 429.148 C 75.75 429.148 71.769 434.016 68.319 436.997 C 64.894 439.956 56.021 445.84 51.156 449.913 C 46.29 453.986 40.716 461.438 40.716 461.438 C 40.716 461.438 46.82 454.781 51.774 450.907 C 56.729 447.032 66.373 439.877 69.203 437.494 C 72.034 435.109 74.069 432.824 74.069 432.824 L 75.75 429.148 Z " fill="rgb(205,151,3)"/><path d=" M 115.294 434.116 C 115.294 434.116 120.072 436.599 123.167 440.473 C 126.264 444.347 128.476 450.508 128.476 454.979 C 128.476 459.351 123.876 471.471 123.876 471.471 C 123.876 471.471 127.149 459.053 127.148 454.979 C 127.148 450.906 124.848 445.242 122.284 441.864 C 119.717 438.486 115.294 434.116 115.294 434.116 Z " fill="rgb(205,151,3)"/><path d=" M 147.054 431.731 C 147.054 431.731 138.031 438.089 134.58 441.963 C 131.13 445.84 129.891 450.708 129.891 450.708 C 129.891 450.708 132.988 445.839 136.173 442.262 C 139.357 438.686 147.054 431.731 147.054 431.731 Z " fill="rgb(205,151,3)"/><path d=" M 177.63 435.289 C 178.276 435.316 179.471 434.164 180.408 432.67 C 181.351 431.166 181.822 429.104 181.624 428.882 C 181.425 428.658 180.081 430.142 178.771 431.082 C 177.257 432.168 175.943 432.726 175.943 432.726 C 175.919 433.811 176.985 435.262 177.63 435.289 Z  M 172.991 422.586 C 171.677 420.469 169.94 419.159 169.94 419.159 C 169.94 419.159 170.188 421.89 171.106 423.95 C 172.024 426.013 173.859 428.073 174.653 429.439 C 175.438 430.787 175.77 432.03 175.77 432.03 C 175.77 432.03 176.205 431.752 176.191 431.389 C 176.167 430.72 174.306 424.703 172.991 422.586 Z  M 178.151 400.69 C 178.697 400.663 179.788 396.763 179.54 396.233 C 179.373 395.878 178.328 396.082 177.829 396.456 C 177.307 396.847 176.886 397.781 176.886 398.295 C 176.886 398.88 177.606 400.718 178.151 400.69 Z  M 181.598 397.181 C 182.095 397.041 182.665 394.924 182.368 394.619 C 182.044 394.285 180.284 395.231 180.259 395.676 C 180.234 396.122 181.103 397.32 181.598 397.181 Z  M 185.567 398.518 C 186.588 400.491 187.031 402.808 187.354 402.668 C 187.675 402.53 188.048 400.273 187.825 397.821 C 187.612 395.486 186.583 392.561 186.138 392.39 C 185.344 392.083 183.31 393.726 183.36 394.619 C 183.396 395.259 184.501 396.456 185.567 398.518 Z  M 188.817 394.2 C 189.066 394.144 189.253 393.195 189.189 392.473 C 189.114 391.637 188.669 390.545 188.37 390.496 C 187.874 390.412 187.081 391.192 187.056 391.776 C 187.03 392.389 188.568 394.256 188.817 394.2 Z  M 132.458 471.869 C 133.651 467.895 133.474 460.196 134.05 458.258 C 134.625 456.32 140.022 448.272 145.373 442.311 C 150.726 436.351 155.234 432.509 156.388 432.178 C 158.112 431.681 163.067 432.227 163.996 433.321 C 164.731 434.185 166.12 439.33 167.181 440.027 C 168.601 440.957 171.781 440.872 172.887 440.424 C 173.745 440.076 174.126 439.281 174.126 439.281 C 174.126 439.281 175.806 439.431 176.294 438.735 C 176.779 438.04 176.868 436.648 175.497 434.661 C 174.126 432.676 171.383 429.297 170.233 426.813 C 169.083 424.329 167.888 420.156 168.021 418.02 C 168.154 415.884 169.702 409.376 170.764 406.645 C 171.825 403.912 175.807 397.057 177.089 395.964 C 178.331 394.906 181.292 394.325 182.84 393.38 C 184.388 392.437 188.103 389.531 188.502 387.966 C 188.836 386.651 187.971 384.464 187.086 383.569 C 186.202 382.675 184.498 382.055 183.039 381.781 C 181.549 381.503 180.54 381.434 180.296 381.161 C 180.071 380.907 180.075 380.117 180.407 380.042 C 180.754 379.965 181.69 380.838 182.707 381.185 C 183.724 381.534 184.897 381.806 185.272 381.657 C 185.698 381.488 185.737 380.415 186.467 380.267 C 186.91 380.176 186.755 381.26 186.975 382.154 C 187.197 383.048 187.661 383.595 187.661 383.595 C 187.661 383.595 187.484 382.303 187.661 381.508 C 187.838 380.713 188.343 380.06 188.17 379.645 C 187.993 379.223 186.246 378.652 185.45 379.173 C 184.715 379.655 184.741 381.012 184.741 381.012 C 184.741 381.012 184.299 379.819 184.741 379.024 C 185.184 378.229 186.577 378.305 186.577 378.305 C 186.577 378.305 185.825 377.716 184.763 377.683 C 183.171 377.634 181.159 378.776 181.159 378.776 C 181.159 378.776 177.974 378.031 176.205 379.074 C 174.435 380.117 173.3 382.651 173.3 382.651 C 173.3 382.651 174.194 379.426 176.16 378.379 C 178.181 377.303 181.38 377.882 181.38 377.882 C 181.38 377.882 183.444 377.087 185.037 377.219 C 186.629 377.352 188.457 378.743 188.811 379.405 C 189.165 380.068 188.059 382.452 188.162 383.777 C 188.219 384.506 189.342 385.83 189.283 387.353 C 189.262 387.883 188.87 388.546 188.87 388.546 C 188.87 388.546 189.224 388.943 189.283 389.474 C 189.342 390.003 189.165 390.466 189.165 390.466 C 189.165 390.466 189.575 391.396 189.637 392.486 C 189.696 393.514 189.371 394.739 188.958 394.872 C 188.546 395.004 187.484 393.612 187.484 393.612 C 187.484 393.612 188.185 395.768 188.369 398.216 C 188.546 400.567 188.162 403.316 187.395 403.383 C 186.629 403.449 186.246 401.064 185.331 399.209 C 184.405 397.33 182.972 395.434 182.972 395.434 C 182.972 395.434 182.53 397.752 181.646 397.786 C 180.994 397.81 180.141 396.692 180.141 396.692 C 180.141 396.692 179.345 401.197 178.136 401.263 C 177.427 401.302 176.692 399.408 176.692 399.408 C 176.692 399.408 172.061 405.833 171.235 408.018 C 170.409 410.204 170.056 417.821 170.056 417.821 C 170.056 417.821 171.825 419.345 172.946 420.869 C 174.066 422.391 176.779 431.532 176.779 431.532 C 176.779 431.532 177.779 431.166 178.92 430.303 C 180.019 429.471 181.391 427.914 181.852 428.187 C 182.318 428.464 182.206 430.507 180.967 432.691 C 179.729 434.878 178.195 435.97 178.195 435.97 C 178.195 435.97 178.372 436.565 178.136 437.029 C 177.9 437.493 177.369 437.625 177.369 437.625 C 177.369 437.625 177.493 438.464 177.074 439.082 C 176.514 439.91 174.567 440.175 174.567 440.175 C 174.567 440.175 174.126 440.971 173.093 441.336 C 171.967 441.732 168.08 442.03 166.518 440.904 C 165.151 439.92 164.394 434.91 163.51 434.116 C 162.625 433.321 159.086 432.891 157.228 433.585 C 155.37 434.28 150.504 438.089 145.816 443.256 C 141.083 448.473 135.907 456.47 135.112 459.152 C 134.316 461.834 135.199 467.994 133.696 472.564 C 132.192 477.134 124.938 484.983 124.938 484.983 C 124.938 484.983 131.262 475.844 132.458 471.869 Z " fill="rgb(205,151,3)"/><path d=" M 165.081 419.497 C 165.081 419.497 163.567 423.927 163.767 425.627 C 163.966 427.328 165.918 429.297 166.595 430.594 C 167.273 431.892 167.443 433.789 167.034 434.084 C 166.476 434.487 164.404 433.189 164.404 433.189 C 164.404 433.189 166.077 433.548 166.396 433.189 C 166.714 432.83 166.356 431.354 165.798 430.593 C 165.241 429.833 163.208 427.417 163.049 425.806 C 162.89 424.195 165.081 419.497 165.081 419.497 Z " fill="rgb(205,151,3)"/><path d=" M 167.272 418.287 C 167.272 418.287 167.352 423.121 167.83 424.82 C 168.308 426.521 170.819 430.505 170.819 430.505 C 170.819 430.505 167.751 427.46 167.112 425.18 C 166.558 423.193 167.272 418.287 167.272 418.287 Z " fill="rgb(205,151,3)"/><path d=" M 168.029 414.036 C 168.029 414.036 168.945 409.785 169.981 406.608 C 171.018 403.432 173.01 399.359 174.046 397.793 C 175.082 396.227 175.918 395.063 175.52 394.84 C 175.121 394.615 173.815 396.126 173.05 397.435 C 172.213 398.867 170.22 403.341 169.384 406.339 C 168.589 409.189 168.029 414.036 168.029 414.036 Z " fill="rgb(205,151,3)"/><path d=" M 167.431 417.214 C 167.431 417.214 168.188 414.977 167.75 414.931 C 167.312 414.887 167.431 417.214 167.431 417.214 Z " fill="rgb(55,53,53)"/><path d=" M 169.053 384.737 C 170.734 384.704 171.884 386.029 172.013 386.471 C 172.12 386.837 172.002 389.937 171.058 392.056 C 170.061 394.295 167.909 396.854 167.193 399.181 C 166.475 401.508 166.236 404.953 166.156 407.369 C 166.076 409.785 166.236 411.576 166.236 411.576 C 166.236 411.576 166.612 412.2 166.516 412.921 C 166.399 413.816 165.029 416.303 163.834 417.689 C 162.638 419.076 160.617 420.257 160.617 420.257 C 160.617 420.257 162.414 418.659 163.45 417.093 C 164.486 415.527 165.638 412.515 165.718 411.71 C 165.797 410.904 165.798 407.683 165.877 405.31 C 165.951 403.115 166.178 399.27 166.458 398.375 C 166.737 397.48 169.967 393.05 170.734 391.328 C 171.571 389.446 171.695 387.009 171.695 387.009 C 171.695 387.009 171.308 387.007 171.057 386.74 C 170.793 386.46 170.498 385.83 170.101 385.443 C 169.667 385.019 169.053 384.737 169.053 384.737 Z " fill="rgb(205,151,3)"/><path d=" M 157.228 384.704 C 157.228 384.704 156.284 386.923 156.756 388.148 C 157.165 389.21 159.174 389.539 159.439 389.406 C 159.705 389.274 160.081 388.559 159.912 388.347 C 159.646 388.016 157.847 388.413 157.404 387.585 C 156.962 386.758 157.228 384.704 157.228 384.704 Z " fill="rgb(205,151,3)"/><path d=" M 173.948 387.553 C 173.948 387.553 174.302 385.235 175.069 383.844 C 175.835 382.453 178.282 381.592 178.342 381.327 C 178.401 381.062 177.694 380.731 177.31 380.797 C 176.913 380.866 175.244 381.988 174.597 383.38 C 173.889 384.904 173.948 387.553 173.948 387.553 Z " fill="rgb(205,151,3)"/><path d=" M 170.233 381.459 C 170.233 381.459 168.906 381.095 168.139 381.658 C 167.373 382.221 166.812 383.314 166.812 383.314 C 166.812 383.314 165.308 382.254 164.099 382.585 C 163.481 382.754 163.333 383.148 163.333 383.148 C 163.333 383.148 162.135 383.202 161.445 383.678 C 160.679 384.208 160.413 385.235 160.413 385.235 C 160.413 385.235 161.563 384.307 163.067 384.142 C 164.571 383.977 165.945 384.972 166.576 385.069 C 167.225 385.168 168.611 384.805 168.611 384.208 C 168.611 383.745 167.697 383.678 167.697 383.678 C 167.697 383.678 167.933 382.651 168.67 382.121 C 169.407 381.591 170.233 381.459 170.233 381.459 Z " fill="rgb(205,151,3)"/><path d=" M 166.547 382.684 C 166.547 382.684 165.839 381.525 164.925 381.194 C 164.011 380.862 162.742 381.359 162.684 381.757 C 162.624 382.154 163.687 381.69 164.659 381.889 C 165.632 382.088 166.547 382.684 166.547 382.684 Z " fill="rgb(205,151,3)"/><path d=" M 181.32 383.032 C 181.32 383.243 181.472 383.412 181.659 383.412 C 181.846 383.412 181.999 383.243 181.999 383.032 C 181.998 382.822 181.846 382.652 181.659 382.651 C 181.472 382.652 181.32 382.823 181.32 383.032 Z " fill="rgb(255,255,255)"/><path d=" M 184.004 384.373 C 184.004 384.556 184.136 384.704 184.299 384.705 C 184.462 384.704 184.593 384.556 184.593 384.373 C 184.593 384.19 184.462 384.042 184.299 384.042 C 184.136 384.042 184.004 384.19 184.004 384.373 Z " fill="rgb(255,255,255)"/><path d=" M 185.655 385.93 C 185.655 386.113 185.787 386.261 185.95 386.261 C 186.113 386.261 186.245 386.113 186.245 385.93 C 186.245 385.747 186.113 385.599 185.95 385.598 C 185.787 385.599 185.655 385.747 185.655 385.93 Z " fill="rgb(255,255,255)"/><path d=" M 175.835 385.83 C 175.835 386.013 175.967 386.162 176.13 386.162 C 176.293 386.162 176.425 386.014 176.425 385.83 C 176.425 385.647 176.293 385.499 176.13 385.498 C 175.967 385.499 175.835 385.647 175.835 385.83 Z " fill="rgb(255,255,255)"/><path d=" M 176.75 390.765 C 176.75 390.948 176.881 391.097 177.044 391.096 C 177.208 391.096 177.34 390.948 177.34 390.765 C 177.34 390.582 177.208 390.434 177.044 390.434 C 176.881 390.434 176.75 390.582 176.75 390.765 Z " fill="rgb(255,255,255)"/><path d=" M 177.694 383.959 C 177.694 384.169 177.845 384.34 178.032 384.34 C 178.22 384.34 178.372 384.169 178.372 383.959 C 178.372 383.749 178.22 383.578 178.033 383.578 C 177.846 383.579 177.694 383.749 177.694 383.959 Z " fill="rgb(255,255,255)"/><path d=" M 182.471 384.82 C 182.471 385.031 182.622 385.201 182.81 385.201 C 182.997 385.201 183.149 385.031 183.15 384.82 C 183.149 384.61 182.997 384.439 182.81 384.439 C 182.622 384.439 182.471 384.61 182.471 384.82 Z " fill="rgb(255,255,255)"/><path d=" M 183.856 386.609 C 183.856 386.819 184.008 386.99 184.195 386.99 C 184.382 386.99 184.534 386.819 184.535 386.609 C 184.534 386.399 184.382 386.229 184.195 386.229 C 184.008 386.229 183.856 386.399 183.856 386.609 Z " fill="rgb(255,255,255)"/><path d=" M 185.065 388.397 C 185.065 388.607 185.217 388.778 185.404 388.778 C 185.591 388.778 185.744 388.607 185.744 388.397 C 185.744 388.186 185.591 388.016 185.404 388.016 C 185.217 388.016 185.065 388.186 185.065 388.397 Z " fill="rgb(255,255,255)"/><path d=" M 178.504 391.13 C 178.504 391.34 178.656 391.511 178.843 391.511 C 179.03 391.511 179.182 391.34 179.182 391.13 C 179.182 390.919 179.03 390.749 178.843 390.749 C 178.656 390.749 178.504 390.919 178.504 391.13 Z " fill="rgb(255,255,255)"/><path d=" M 176.278 388.364 C 176.278 388.575 176.429 388.744 176.616 388.744 C 176.804 388.744 176.956 388.575 176.956 388.364 C 176.956 388.155 176.804 387.983 176.617 387.983 C 176.429 387.984 176.278 388.154 176.278 388.364 Z " fill="rgb(255,255,255)"/><path d=" M 177.414 385.963 C 177.414 386.173 177.565 386.344 177.753 386.343 C 177.94 386.343 178.092 386.173 178.092 385.963 C 178.092 385.753 177.94 385.582 177.752 385.582 C 177.565 385.582 177.414 385.753 177.414 385.963 Z " fill="rgb(255,255,255)"/><path d=" M 179.301 383.429 C 179.301 383.667 179.472 383.86 179.684 383.859 C 179.896 383.859 180.067 383.667 180.067 383.429 C 180.067 383.191 179.896 382.999 179.684 382.999 C 179.472 382.999 179.301 383.191 179.301 383.429 Z " fill="rgb(255,255,255)"/><path d=" M 180.805 385.383 C 180.805 385.621 180.976 385.814 181.188 385.814 C 181.4 385.814 181.572 385.621 181.572 385.383 C 181.572 385.145 181.4 384.953 181.188 384.953 C 180.976 384.953 180.805 385.145 180.805 385.383 Z " fill="rgb(255,255,255)"/><path d=" M 179.109 385.798 C 179.109 386.036 179.28 386.229 179.492 386.229 C 179.704 386.228 179.876 386.036 179.876 385.798 C 179.876 385.56 179.704 385.367 179.492 385.367 C 179.28 385.367 179.109 385.56 179.109 385.798 Z " fill="rgb(255,255,255)"/><path d=" M 178.136 388.347 C 178.136 388.586 178.308 388.778 178.519 388.778 C 178.731 388.778 178.903 388.586 178.903 388.347 C 178.903 388.11 178.731 387.917 178.519 387.917 C 178.307 387.917 178.136 388.11 178.136 388.347 Z " fill="rgb(255,255,255)"/><path d=" M 180.083 388.149 C 180.083 388.386 180.254 388.58 180.466 388.58 C 180.678 388.58 180.849 388.387 180.849 388.149 C 180.849 387.911 180.678 387.718 180.466 387.719 C 180.254 387.719 180.083 387.911 180.083 388.149 Z " fill="rgb(255,255,255)"/><path d=" M 182.058 387.519 C 182.058 387.757 182.23 387.95 182.441 387.95 C 182.653 387.95 182.825 387.757 182.825 387.519 C 182.825 387.281 182.653 387.088 182.441 387.088 C 182.229 387.089 182.058 387.281 182.058 387.519 Z " fill="rgb(255,255,255)"/><path d=" M 183.089 389.606 C 183.089 389.843 183.261 390.036 183.473 390.036 C 183.685 390.036 183.856 389.844 183.856 389.606 C 183.856 389.368 183.685 389.175 183.473 389.175 C 183.261 389.175 183.089 389.368 183.089 389.606 Z " fill="rgb(255,255,255)"/><path d=" M 180.819 390.633 C 180.819 390.87 180.991 391.063 181.203 391.063 C 181.415 391.063 181.586 390.87 181.586 390.633 C 181.586 390.395 181.415 390.202 181.203 390.203 C 180.991 390.202 180.819 390.395 180.819 390.633 Z " fill="rgb(255,255,255)"/><path d=" M 175.954 378.743 C 175.954 378.743 174.361 379.14 173.241 379.041 C 172.121 378.942 169.437 377.981 167.697 377.949 C 165.957 377.914 164.66 378.147 164.66 378.147 C 164.66 378.147 163.391 377.385 161.357 377.584 C 159.322 377.783 156.815 378.743 155.843 378.942 C 154.869 379.14 152.776 379.405 150.475 380.432 C 147.918 381.573 144.371 384.34 142.248 386.028 C 140.125 387.718 139.859 387.85 137.854 388.976 C 135.848 390.103 133.253 391.692 131.632 393.016 C 130.468 393.968 129.214 395.599 129.214 395.599 L 131.956 394.573 C 131.956 394.573 133.224 392.785 135.554 391.327 C 137.883 389.87 139.653 388.976 140.921 388.049 C 142.189 387.122 144.578 385.002 146.73 383.545 C 148.883 382.088 150.858 381.26 152.098 380.862 C 153.335 380.465 154.427 380.332 154.427 380.332 C 154.427 380.332 153.748 381.061 153.955 381.293 C 154.162 381.525 158.29 378.312 161.563 378.346 C 164.365 378.374 165.662 380.73 166.164 380.597 C 166.665 380.465 166.164 378.909 166.164 378.909 C 166.164 378.909 167.196 378.577 168.582 378.644 C 169.968 378.709 172.328 379.538 173.329 379.604 C 174.332 379.67 175.04 379.67 175.04 379.67 L 175.954 378.743 Z " fill="rgb(205,151,3)"/><path d=" M 127.886 396.825 C 127.886 396.825 130.953 395.335 133.813 394.639 C 136.674 393.944 140.805 394.082 141.333 393.712 C 141.805 393.381 142.099 392.056 142.808 390.996 C 143.491 389.973 144.665 389.539 144.666 389.34 C 144.665 389.142 143.84 388.778 143.368 388.976 C 142.947 389.154 142.365 389.87 141.953 390.864 C 141.523 391.898 141.569 393.016 141.127 393.347 C 140.684 393.679 136.644 393.116 132.899 394.01 C 129.155 394.904 126.058 396.725 126.058 396.725 L 127.886 396.825 Z " fill="rgb(205,151,3)"/><path d=" M 122.195 399.078 C 122.195 399.078 123.316 401.098 125.734 402.19 C 128.152 403.283 131.248 403.118 131.248 403.118 C 131.248 403.118 130.658 404.078 130.836 404.575 C 131.012 405.072 132.284 405.421 133.489 405.137 C 134.758 404.84 135.495 403.548 135.259 403.316 C 135.023 403.085 134.227 404.046 133.401 404.31 C 132.575 404.575 131.425 404.674 131.307 404.344 C 131.189 404.012 132.398 402.886 132.103 402.455 C 131.808 402.025 128.566 402.456 126.087 401.528 C 123.61 400.601 122.195 399.078 122.195 399.078 Z " fill="rgb(205,151,3)"/><path d=" M 152.008 424.379 C 152.008 424.379 153.512 423.286 154.22 421.994 C 154.928 420.703 155.193 418.418 155.193 418.418 C 155.193 418.418 148.499 417.226 147.349 415.635 C 146.198 414.046 145.52 410.569 145.609 408.682 C 145.697 406.793 146.494 404.078 146.494 404.078 C 146.494 404.078 144.37 406.959 142.542 407.819 C 140.705 408.685 134.167 409.343 132.545 408.848 C 131.344 408.48 130.274 406.893 130.274 406.893 C 130.274 406.893 129.305 407.497 128.239 407.522 C 126.883 407.555 122.696 405.137 121.192 402.124 C 120.005 399.745 120.484 397.156 121.133 396.726 C 121.782 396.295 125.379 397.289 128.033 397.256 C 130.688 397.223 133.194 396.758 134.993 396.626 C 136.818 396.492 140.242 396.692 141.362 397.256 C 142.393 397.774 142.778 398.978 142.778 398.978 C 142.778 398.978 141.303 399.972 140.448 400.998 C 139.593 402.024 138.826 403.449 139.033 404.342 C 139.239 405.237 141.139 406.257 141.628 405.634 C 142.07 405.072 140.154 404.774 139.918 403.88 C 139.687 403.007 140.37 401.629 141.303 400.766 C 142.306 399.839 143.928 399.242 143.928 399.242 C 143.928 399.242 143.36 397.116 141.716 396.428 C 139.976 395.699 136.998 396.096 134.728 396.295 C 132.457 396.494 129.655 396.593 127.621 396.428 C 125.586 396.262 121.735 395.056 120.602 395.832 C 119.393 396.66 119.155 400.025 120.632 402.919 C 122.254 406.098 126.736 408.814 128.328 408.879 C 129.477 408.927 130.127 408.283 130.127 408.283 C 130.127 408.283 131.218 409.641 132.398 409.906 C 134.02 410.271 140.979 409.575 142.512 408.814 C 144.046 408.052 145.491 406.098 145.491 406.098 C 145.491 406.098 144.96 407.985 145.02 409.576 C 145.078 411.165 145.655 415.382 146.788 416.629 C 148.293 418.285 154.633 418.882 154.633 418.882 C 154.633 418.882 154.338 420.471 153.689 421.73 C 153.041 422.988 152.008 424.379 152.008 424.379 Z " fill="rgb(205,151,3)"/><path d=" M 495.393 234.267 C 494.454 236.768 494.172 238.778 492.191 240.236 C 490.025 241.828 486.827 241.111 484.179 242.535 C 484.426 242.933 485.016 243.039 485.781 242.994 C 484.633 243.512 482.154 243.937 481.244 243.91 C 481.954 244.418 480.327 244.486 481.514 244.829 C 479.421 245.098 477.718 245.701 476.705 246.894 C 469.83 246.974 464.35 249.738 459.628 251.028 C 457.865 251.509 456.357 251.423 455.088 252.178 C 452.891 253.478 451.851 255.941 449.481 257.227 C 450.096 259.913 451.432 261.978 452.15 264.575 C 451.268 265.471 450.414 265.004 448.684 265.035 C 447.664 265.457 447.702 266.794 446.81 267.33 C 445.574 267.196 445.203 267.642 444.409 267.33 C 443.504 267.927 443.347 269.168 442.008 269.395 C 440.803 269.59 440.676 268.859 439.872 268.709 C 438.861 269.141 439.144 270.682 438.003 271.003 C 436.624 270.661 435.092 270.445 435.331 268.709 C 434.215 268.966 433.904 269.923 432.93 270.315 C 431.582 269.549 430.618 269.553 428.927 269.395 C 428.918 268.242 429.062 267.213 429.729 266.64 C 428.779 266.517 428.025 268.538 425.991 268.249 C 425.705 267.45 426.363 265.725 427.06 265.035 C 426.251 265.059 424.062 266.634 422.521 265.491 L 422.521 264.115 C 421.784 263.759 420.991 263.443 420.121 263.2 C 420.074 261.851 420.67 261.066 421.453 260.441 C 420.441 260.013 419.077 259.886 418.518 259.062 C 418.318 257.591 419.61 257.402 420.121 256.541 C 419.61 255.907 419.029 255.333 418.518 254.703 C 418.676 253.454 420.704 253.134 420.656 252.404 C 420.28 252.246 418.422 250.85 418.518 250.569 C 419.276 248.4 430.196 250.909 434 249.649 C 434.136 248.463 432.477 248.819 431.862 248.274 C 431.784 247.742 431.91 247.392 432.133 247.124 C 431.459 246.933 430.844 246.833 429.729 246.665 C 429.5 246.019 428.868 245.725 428.927 244.829 C 427.532 244.623 427.925 245.955 426.526 245.748 C 425.649 245.204 426.1 243.516 425.991 242.305 C 425.002 242.141 424.85 242.696 423.859 242.535 C 420.656 239.275 421.971 235.581 419.32 231.742 C 418.682 231.883 418.103 232.075 417.186 231.972 C 416.34 230.936 416.132 229.355 414.785 228.758 C 414.737 228.034 414.774 227.371 415.315 227.152 C 414.774 226.779 413.92 226.669 413.45 226.233 C 413.691 224.394 413.874 223.458 412.912 222.559 C 411.881 221.591 411.989 221.716 411.043 220.494 C 410.665 220 409.944 220.01 409.445 219.574 C 409.001 219.187 408.898 218.24 408.376 217.509 C 407.047 215.636 405.78 215.883 406.505 214.065 C 405.508 213.053 403.434 211.856 403.569 210.621 C 403.961 210.281 405.317 210.281 405.708 210.621 C 404.296 208.851 402.646 207.287 401.168 205.571 C 403.698 205.462 405.692 207.798 408.376 208.327 C 406.569 206.587 404.451 205.118 402.5 203.503 C 402.406 203.112 402.709 203.07 403.036 203.043 C 401.752 202.543 401.234 201.383 400.902 200.059 C 404.04 201.949 406.6 204.34 409.978 206.027 C 408.164 203.379 403.752 200.974 403.307 196.384 C 406.351 199.276 408.894 202.597 412.648 204.879 C 409.952 201.767 407.236 198.669 406.777 193.63 C 408.922 196.529 410.996 201.479 414.785 203.733 C 413.101 200.82 410.477 197.565 411.043 192.94 C 411.218 191.513 411.559 194.323 411.845 195.239 C 412.975 198.834 415.287 202.164 417.719 204.652 C 416.79 202.385 415.112 198.783 414.785 195.239 C 416.779 201.053 419.048 205.379 423.324 209.472 C 427.277 213.259 432.58 216.188 435.867 220.034 C 438.108 222.652 439.91 225.846 442.276 228.758 C 444.553 231.563 446.338 235.018 448.948 237.251 C 449.538 237.763 450.782 237.797 450.55 238.401 C 453.73 238.692 454.882 241.31 458.822 241.385 C 461.781 241.443 466.279 239.049 467.9 241.845 C 470.851 241.704 473.156 240.589 476.171 240.466 C 479.366 240.339 482.595 241.529 485.519 240.696 C 489.563 239.547 490.783 234.024 493.79 232.432 L 493.79 234.267 C 494.631 234.376 494.397 233.564 495.393 233.807 L 495.393 234.267 Z " fill-rule="evenodd" fill="rgb(205,151,3)"/><path d=" M 142.701 306.558 C 136.659 309.712 126.68 309.447 119.727 309.447 C 115.805 309.447 111.616 309.799 107.865 308.911 C 104.847 308.196 102.138 306.516 99.276 305.687 C 99.567 305.928 99.87 306.42 100.151 306.707 C 99.534 306.625 98.773 306.849 98.16 306.775 C 98.75 307.129 99.107 307.759 99.615 308.147 C 99.053 308.056 98.288 308.165 97.739 308.038 C 97.7 308.105 97.952 308.318 97.892 308.328 C 94.919 308.337 92.992 307.276 90.323 309.274 C 91.448 308.923 92.646 308.62 93.836 308.544 C 93.682 308.549 93.528 308.54 93.374 308.545 C 93.997 308.601 94.529 308.823 95.025 309.046 C 94.393 309.15 93.777 309.43 93.141 309.492 C 93.434 309.503 94.182 309.658 94.642 309.664 C 94.158 309.832 93.244 310.359 92.759 310.491 C 93.439 310.603 93.942 311.022 94.457 311.213 C 93.863 311.281 93.34 311.571 92.759 311.649 C 93.02 311.753 93.735 312.36 94.068 312.482 C 93.416 312.499 92.801 312.848 92.189 312.923 C 92.783 313.15 93.466 313.711 94.26 313.821 C 92.731 314.353 93.518 315.716 94.642 316.453 C 94.238 316.444 93.743 316.562 93.343 316.521 C 93.479 316.942 93.649 316.996 94.027 317.351 C 93.982 317.373 93.333 317.646 93.338 317.613 C 93.784 317.962 94.061 318.655 94.596 318.981 C 94.371 319.039 94.141 318.966 93.918 319.043 C 94.209 319.326 94.563 320.101 95.025 320.424 C 94.416 320.24 93.601 320.259 92.955 319.997 C 93.573 320.782 94.268 321.515 95.058 322.096 C 95.203 322.094 95.207 322.09 95.069 322.085 C 94.029 321.958 93.064 321.575 92.046 321.352 C 92.778 322.014 93.568 322.658 94.406 323.175 C 94.293 323.08 94.117 323.194 94.097 323.302 C 94.428 323.502 94.704 323.637 94.979 323.897 C 94.631 323.971 94.151 324.212 93.716 324.289 C 94.183 324.462 94.916 325.058 95.599 325.197 C 95.351 325.379 95.035 325.895 94.725 326.108 C 95.164 326.194 95.488 326.425 95.983 326.452 C 95.487 326.787 94.837 327.516 94.29 327.829 C 94.552 327.774 94.924 327.72 95.165 327.667 C 94.737 327.908 94.263 328.363 93.908 328.55 C 94.648 328.337 95.667 328.181 96.352 327.893 C 96.378 328.528 96.743 329.396 96.763 329.877 C 96.838 329.627 97.09 329.156 97.189 328.783 C 97.354 329.126 97.654 329.544 97.763 330.018 C 97.866 329.904 98.085 329.557 98.257 329.506 C 98.304 330.369 98.756 330.868 99.027 331.463 C 98.259 327.572 108.22 331.412 110.162 331.667 C 114.573 332.245 119.201 331.853 123.575 332.494 C 123.645 332.403 123.486 332.162 123.589 332.031 C 123.911 332.069 124.174 332.298 124.499 332.348 C 124.482 332.336 124.317 332.088 124.354 332.042 C 124.736 332.341 125.249 332.569 125.68 332.854 C 125.721 332.835 125.574 332.43 125.705 332.397 C 126.885 333.165 127.851 332.924 129.117 333.386 C 130.157 332.454 131.578 333.258 132.91 333.255 C 132.901 332.942 132.978 332.572 132.968 332.263 C 133.492 332.614 134.173 332.713 134.628 333.08 C 134.533 332.825 134.44 332.514 134.299 332.232 C 135.345 332.598 136.295 333.352 137.275 334.028 C 136.43 333.224 135.783 332.354 135.026 331.477 C 137.478 329.773 141.169 329.213 144.046 327.729 C 146.71 326.357 149.905 323.751 152.023 321.717 C 151.246 321.807 150.544 321.81 149.841 322.056 C 150.617 321.71 151.363 321.223 152.013 320.643 C 151.498 320.665 150.661 320.293 150.186 320.295 C 150.498 319.979 150.651 319.402 151.07 319.049 C 150.522 319.037 149.921 318.641 149.415 318.61 C 150.262 317.617 151.126 316.483 151.817 315.393 C 151.349 315.461 150.817 315.31 150.373 315.374 C 150.879 314.982 151.281 314.243 151.826 313.768 C 151.049 313.91 150.192 313.667 149.425 313.753 C 149.691 313.32 149.651 312.486 149.96 312.012 C 149.139 311.878 148.111 311.726 147.358 311.627 C 147.834 311.135 147.774 310.484 148.031 310.026 C 147.568 310.041 146.949 309.709 146.401 309.782 C 146.831 309.329 146.805 308.801 147.079 308.391 C 146.578 308.491 145.906 308.245 145.405 308.332 C 145.513 308.04 145.448 307.615 145.543 307.308 C 145.035 307.391 144.376 307.162 143.869 307.253 C 143.952 307.116 144.172 306.752 144.202 306.604 C 143.765 306.3 143.434 306.414 142.893 306.377" fill-rule="evenodd" fill="rgb(205,151,3)"/><path d=" M 158.109 296.536 C 155.629 294.538 153.498 291.848 150.835 290.036 C 148.444 288.408 145.319 287.652 143.318 285.602 C 141.484 283.724 140.125 281.74 137.579 280.696 C 134.904 279.599 131.047 280.047 129.638 282.858 C 128.968 284.195 129.926 286.104 129.306 287.421 C 128.833 288.427 127.172 289.074 126.307 289.954 C 129.189 289.909 132.619 288.866 133.891 291.932 C 135.057 294.745 134.158 297.478 135.949 300.279 C 139.99 306.599 146.169 305.937 153.036 305.475 C 158.362 305.117 163.014 303.624 168.387 303.99 C 171.06 304.172 181.342 307.173 182.728 305.646 C 181.71 304.349 179.684 303.936 178.466 303.67 C 180.315 303.805 182.825 304.812 184.446 303.859 C 183.406 301.801 180.141 302.428 178.169 302.045 C 179.176 301.958 183.613 301.89 181.932 300.284 C 180.95 299.344 177.254 300.329 176.005 300.423 C 174.061 300.569 172.145 300.896 170.263 300.96 C 170.263 300.96 162.033 299.696 158.109 296.536 Z " fill-rule="evenodd" fill="rgb(205,151,3)"/><path d=" M 129.506 288.566 C 127.319 290.617 126.932 294.205 127.368 296.807 C 128.404 294.737 127.844 292.216 129.547 290.155 C 131.797 287.433 131.479 291.667 132.267 293.358 C 132.688 291.989 132.662 288.736 130.82 288.41" fill-rule="evenodd" fill="rgb(205,151,3)"/><path d=" M 145.859 305.655 C 145.132 306.105 144.503 307.572 144.056 308.341 C 144.242 308.483 144.729 308.682 144.979 308.716 C 145.631 307.675 146.519 306.425 147.486 305.655" fill-rule="evenodd" fill="rgb(205,151,3)"/><path d=" M 152.462 305.655 C 151.449 307.254 150.455 308.804 149.379 310.328 C 148.661 311.343 148.595 311.471 147.462 311.364 C 146.059 311.23 145.909 311.107 144.646 311.958 C 145.663 311.834 146.795 311.35 147.608 312.311 C 148.25 313.072 148.29 313.922 149.093 314.744 C 148.85 313.395 148.549 313.007 149.399 311.975 C 150.032 311.208 150.453 310.62 151.026 309.809 C 152.175 308.184 153.898 305.745 154.951 305.023" fill-rule="evenodd" fill="rgb(205,151,3)"/><path d=" M 125.761 309.99 C 127.275 308.37 124.963 307.147 125.642 305.365 C 125.937 304.589 127.315 304.189 127.488 303.584 C 127.632 303.083 126.605 301.786 126.347 301.354 C 127.203 301.732 127.814 302.441 128.513 303.029 C 129.059 302.247 130.119 301.237 131.087 301.06 C 130.356 301.837 129.615 302.545 130.257 303.331 C 130.946 304.176 131.905 303.985 132.274 305.295 C 132.534 306.219 132.283 307.039 131.907 307.843 C 131.439 308.842 131.207 309.026 131.79 310.17" fill-rule="evenodd" fill="rgb(205,151,3)"/><path d=" M 108.243 297.892 C 107.819 296.563 107.939 294.663 107.623 293.224 C 108.388 294.604 109.563 295.753 109.937 297.285 C 111.226 296.253 112.503 294.987 113.715 293.803 C 113.058 294.716 111.775 296.566 111.953 297.692 C 112.166 299.041 113.374 299.846 113.437 301.492 C 113.5 303.163 112.598 304.032 112.277 305.491 C 111.962 306.915 112.155 308.608 112.469 309.976 C 110.919 309.955 109.053 309.923 107.517 309.675 C 107.566 308.52 108.494 307.323 107.796 306.217 C 107.122 305.147 105.878 305.003 105.491 303.691 C 104.947 301.852 105.794 298.371 108.138 297.992" fill-rule="evenodd" fill="rgb(205,151,3)"/><path d=" M 118.791 299.722 C 118.407 298.514 118.515 296.788 118.227 295.48 C 118.922 296.735 119.989 297.778 120.33 299.17 C 121.5 298.232 122.661 297.083 123.762 296.007 C 123.164 296.837 122 298.517 122.161 299.54 C 122.355 300.765 123.452 301.496 123.508 302.992 C 123.566 304.51 122.747 305.299 122.455 306.624 C 122.169 307.918 122.345 309.455 122.63 310.698 C 121.221 310.679 119.527 310.65 118.131 310.426 C 118.175 309.376 119.018 308.288 118.384 307.283 C 117.773 306.312 116.643 306.18 116.291 304.99 C 115.797 303.319 116.566 300.157 118.694 299.812" fill-rule="evenodd" fill="rgb(205,151,3)"/><path d=" M 236.854 549.175 C 236.854 549.175 240.991 551.32 244.349 546.498 C 244.349 546.498 242.538 537.392 248.996 545.694 C 248.996 545.694 251.84 541.142 257.265 545.158 C 257.265 545.158 262.948 548.64 265.273 551.049 C 265.273 551.049 269.664 553.194 271.733 554.53 C 271.733 554.53 275.605 555.335 276.121 559.887 C 276.121 559.887 276.121 561.495 273.025 563.104 C 273.025 563.104 273.538 565.777 269.407 566.581 C 269.407 566.581 257.779 568.458 253.132 567.118 C 253.132 567.118 238.921 571.939 232.206 583.452 C 232.206 583.452 229.879 589.345 233.753 604.071 C 233.753 604.071 235.564 610.768 238.407 614.249 C 238.407 614.249 244.864 617.194 241.245 617.732 C 241.245 617.732 240.472 618.532 236.337 618.264 C 236.337 618.264 236.596 617.194 234.788 615.584 C 234.788 615.584 230.912 612.906 230.912 609.428 C 230.912 609.428 224.198 594.433 221.615 592.023 C 221.615 592.023 211.276 590.416 208.7 589.88 C 208.7 589.88 206.113 597.112 203.27 603.535 C 203.27 603.535 200.687 609.161 202.237 614.516 C 202.237 614.516 206.885 617.732 202.237 617.732 C 202.237 617.732 195.004 619.604 197.07 615.051 C 197.07 615.051 194.746 613.178 196.811 609.962 C 196.811 609.962 199.914 594.433 200.687 592.023 L 201.719 588.808 C 201.719 588.808 183.635 592.558 176.661 590.147 C 176.661 590.147 168.135 592.558 164.52 592.289 C 164.52 592.289 162.712 601.394 161.164 592.558 C 161.164 592.558 157.545 591.486 157.289 589.074 C 157.289 589.074 151.087 604.34 159.87 615.584 C 159.87 615.584 164.776 620.406 161.42 620.942 C 161.42 620.942 153.152 622.015 155.479 619.338 C 155.479 619.338 155.995 618.261 154.187 616.389 C 154.187 616.389 152.377 615.32 151.344 609.161 C 151.344 609.161 147.728 600.325 145.92 598.452 C 145.92 598.452 144.885 595.237 145.92 593.627 C 145.92 593.627 146.692 591.218 146.95 588.808 C 146.95 588.808 145.146 588.005 144.885 586.668 C 144.885 586.668 144.629 590.416 143.853 592.558 C 143.853 592.558 146.179 600.325 143.334 601.932 C 143.334 601.932 141.01 606.212 138.943 608.09 C 138.943 608.09 136.103 609.161 137.396 603.002 C 137.396 603.002 137.652 598.983 139.2 600.325 C 139.2 600.325 139.721 592.558 138.688 588.54 C 138.688 588.54 135.844 578.633 139.976 580.239 L 141.787 579.169 C 141.787 579.169 142.044 573.544 143.08 572.204 C 143.08 572.204 141.787 562.834 140.493 559.082 C 140.493 559.082 138.688 574.348 137.135 578.363 C 137.135 578.363 138.168 580.507 134.812 588.005 C 134.812 588.005 125.512 602.467 132.485 585.327 C 132.485 585.327 138.428 562.297 138.943 556.138 C 138.943 556.138 138.688 544.355 147.469 543.821 C 147.469 543.821 164.003 543.819 171.755 544.086 C 171.755 544.086 201.98 544.625 209.214 545.963 C 209.214 545.963 220.838 546.498 224.198 548.103 C 224.198 548.103 234.531 549.445 236.854 549.175 Z " fill="rgb(205,151,3)"/><path d=" M 194.289 221.869 C 194.289 221.869 195.327 224.183 195.066 222.126 C 195.066 222.126 195.066 221.014 194.808 220.584 C 194.808 220.584 193.942 220.757 194.289 221.869 Z  M 195.759 213.218 C 195.759 213.218 196.021 212.535 196.105 211.677 C 196.105 211.677 193.336 212.706 194.895 216.301 C 194.895 216.301 195.414 216.301 195.066 214.845 C 195.066 214.845 195.499 212.619 195.759 213.218 Z  M 217.476 220.757 C 218.254 219.557 217.217 219.47 217.217 219.47 L 217.476 220.757 Z  M 216.956 217.673 L 217.563 217.846 C 217.563 213.904 216.438 213.819 216.438 213.819 L 216.956 217.673 Z  M 238.066 248.167 C 238.066 248.167 238.154 251.335 237.202 251.335 C 237.202 251.335 235.643 251.937 234.693 254.161 C 234.693 254.161 232.703 257.587 233.568 258.958 C 233.568 258.958 235.211 260.33 235.299 260.843 C 235.299 260.843 236.25 266.412 235.643 268.124 C 235.643 268.124 235.643 273.606 235.99 275.234 C 235.99 275.234 236.337 275.747 236.077 276.69 C 236.077 276.69 235.384 276.776 235.299 277.719 C 235.299 277.719 235.471 278.574 232.789 278.318 C 232.789 278.318 232.183 277.719 233.481 276.604 C 233.481 276.604 234.693 273.094 233.914 266.07 C 233.914 266.07 233.568 264.955 233.049 264.612 C 233.049 264.612 231.577 269.41 230.887 270.524 C 230.887 270.524 229.848 273.863 230.107 276.177 C 230.107 276.177 230.714 276.86 229.76 277.205 C 229.76 277.205 229.069 277.547 229.155 278.318 C 229.155 278.318 228.983 278.66 226.56 278.318 C 226.56 278.318 225.469 277.165 227.312 276.843 C 227.312 276.843 228.376 273.692 229.069 272.238 C 229.069 272.238 231.145 265.726 231.057 262.472 C 231.057 262.472 228.463 258.104 227.079 257.417 C 227.079 257.417 221.627 260.158 218.254 258.619 C 218.254 258.619 216.956 264.268 216.871 266.754 C 216.871 266.754 216.784 267.693 216.523 268.639 C 216.523 268.639 216.784 274.806 217.476 276.776 C 217.476 276.776 217.302 277.291 217.129 278.401 C 217.129 278.401 217.908 279.261 215.66 279.173 C 215.66 279.173 212.804 279.689 214.536 278.231 C 214.536 278.231 215.226 269.579 215.054 267.525 C 215.054 267.525 213.928 266.583 214.706 264.612 L 214.62 258.017 C 214.62 258.017 212.976 258.274 212.025 258.017 C 212.025 258.017 210.899 269.41 211.334 271.464 C 211.334 271.464 211.506 275.319 211.766 277.034 C 211.766 277.034 213.063 277.975 211.678 278.574 C 211.678 278.574 211.075 278.831 211.075 279.261 C 211.075 279.261 210.468 279.773 209.256 279.516 C 209.256 279.516 207.179 279.603 209.344 277.376 C 209.344 277.376 210.381 271.893 209.515 266.07 C 209.515 266.07 206.833 257.674 206.833 255.449 C 206.833 255.449 203.461 252.963 203.719 246.709 C 203.719 246.709 203.2 245.681 202.595 243.371 C 202.595 243.371 201.297 237.717 202.076 235.319 C 202.076 235.319 201.729 232.319 201.297 231.379 C 201.297 231.379 198.615 231.379 198.182 230.264 C 198.182 230.264 197.317 228.636 196.799 228.21 C 196.799 228.21 196.018 226.837 197.577 227.267 C 197.577 227.267 200.344 228.036 200.519 228.722 C 200.519 228.722 201.469 229.15 200.863 228.036 C 200.863 228.036 199.306 225.124 195.585 224.784 C 195.585 224.784 191.866 224.267 192.385 221.785 C 192.385 221.785 192.214 220.414 192.904 219.987 C 192.904 219.987 191.934 215.681 192.463 214.748 C 192.463 214.748 193.336 210.221 196.193 210.82 C 196.193 210.82 197.317 208.422 198.788 208.849 C 198.788 208.849 199.48 209.45 198.527 209.879 C 198.527 209.879 196.971 209.963 196.712 215.36 C 196.712 215.36 199.393 214.503 196.539 216.388 L 196.319 217.508 C 196.319 217.508 197.317 217.588 198.096 216.816 C 198.096 216.816 200.084 215.787 198.182 217.93 C 198.182 217.93 197.058 219.213 196.366 219.3 C 196.366 219.3 196.539 222.469 196.971 223.497 C 196.971 223.497 200.172 224.697 200.344 225.124 C 200.344 225.124 201.297 225.725 201.125 224.097 C 201.125 224.097 200.863 219.557 201.729 221.612 C 201.729 221.612 202.076 224.183 202.247 225.297 C 202.247 225.297 202.767 226.837 203.2 227.181 C 203.2 227.181 204.066 227.181 204.239 227.78 L 205.97 227.953 C 205.97 227.953 206.661 227.095 207.093 227.352 C 207.093 227.352 208.737 227.01 208.046 222.556 C 208.046 222.556 207.787 221.271 207.268 220.757 C 207.268 220.757 207.352 218.443 208.218 220.327 C 208.218 220.327 209.43 222.556 209.256 224.697 C 209.256 224.697 209.256 225.811 210.556 225.21 C 210.556 225.21 213.497 224.01 214.101 224.01 C 214.101 224.01 214.62 224.267 214.62 222.041 C 214.62 222.041 214.794 214.417 212.804 212.535 C 212.804 212.535 211.853 210.049 213.237 211.334 C 213.237 211.334 214.879 214.333 215.139 214.845 C 215.139 214.845 215.313 211.334 213.581 210.221 C 213.581 210.221 211.593 208.336 213.497 208.937 C 213.497 208.937 215.485 209.879 215.919 211.763 C 215.919 211.763 218.166 212.619 218.427 214.845 L 218.861 218.957 C 218.861 218.957 220.158 220.327 219.293 221.698 C 219.293 221.698 218.427 225.297 215.054 225.981 C 215.054 225.981 210.899 226.581 210.381 227.78 C 210.381 227.78 209.95 228.893 209.17 229.751 C 209.17 229.751 207.959 232.749 208.911 235.231 C 208.911 235.231 209.95 238.916 211.159 239.515 C 211.159 239.515 216.698 240.971 223.878 239.944 C 223.878 239.944 230.539 238.401 234.433 240.715 C 234.433 240.715 238.066 242.256 238.066 248.167 Z " fill="rgb(42,42,42)"/><path d=" M 203.2 227.181 C 203.2 227.181 204.066 227.181 204.239 227.78 L 205.97 227.953 C 205.97 227.953 206.661 227.095 207.093 227.352 C 207.093 227.352 208.737 227.01 208.046 222.556 C 208.046 222.556 207.787 221.271 207.268 220.757 C 207.268 220.757 207.352 218.443 208.218 220.327 C 208.218 220.327 209.43 222.556 209.256 224.697 C 209.256 224.697 209.256 225.811 210.555 225.21 C 210.555 225.21 213.497 224.01 214.101 224.01 C 214.101 224.01 214.62 224.267 214.62 222.041 C 214.62 222.041 214.794 214.417 212.804 212.535 C 212.804 212.535 211.853 210.049 213.237 211.334 C 213.237 211.334 214.879 214.333 215.139 214.845 C 215.139 214.845 215.313 211.334 213.581 210.221 C 213.581 210.221 211.593 208.336 213.497 208.937 C 213.497 208.937 215.485 209.879 215.919 211.763 C 215.919 211.763 218.166 212.618 218.427 214.845 L 218.861 218.957 C 218.861 218.957 220.158 220.327 219.293 221.698 C 219.293 221.698 218.427 225.297 215.054 225.981 C 215.054 225.981 210.899 226.581 210.381 227.78 C 210.381 227.78 209.95 228.893 209.17 229.751 C 209.17 229.751 207.959 232.749 208.911 235.231 C 208.911 235.231 209.95 238.916 211.159 239.515 C 211.159 239.515 216.698 240.971 223.878 239.944 C 223.878 239.944 230.539 238.401 234.433 240.715 C 234.433 240.715 238.066 242.256 238.066 248.167 C 238.066 248.167 238.154 251.335 237.202 251.335 C 237.202 251.335 235.643 251.937 234.693 254.161 C 234.693 254.161 232.702 257.587 233.568 258.958 C 233.568 258.958 235.211 260.33 235.299 260.843 C 235.299 260.843 236.25 266.412 235.643 268.124 C 235.643 268.124 235.643 273.606 235.99 275.234 C 235.99 275.234 236.337 275.747 236.077 276.69 C 236.077 276.69 235.384 276.776 235.299 277.719 C 235.299 277.719 235.471 278.574 232.788 278.318 C 232.788 278.318 232.183 277.719 233.481 276.604 C 233.481 276.604 234.693 273.094 233.913 266.07 C 233.913 266.07 233.568 264.955 233.049 264.612 C 233.049 264.612 231.576 269.41 230.887 270.524 C 230.887 270.524 229.847 273.863 230.107 276.177 C 230.107 276.177 230.714 276.86 229.76 277.205 C 229.76 277.205 229.069 277.547 229.155 278.318 C 229.155 278.318 228.983 278.66 226.56 278.318 C 226.56 278.318 225.469 277.165 227.312 276.843 C 227.312 276.843 228.376 273.692 229.069 272.238 C 229.069 272.238 231.145 265.726 231.057 262.472 C 231.057 262.472 228.463 258.104 227.078 257.417 C 227.078 257.417 221.627 260.158 218.254 258.618 C 218.254 258.618 216.956 264.268 216.87 266.754 C 216.87 266.754 216.783 267.693 216.523 268.639 C 216.523 268.639 216.783 274.806 217.475 276.776 C 217.475 276.776 217.302 277.291 217.129 278.401 C 217.129 278.401 217.908 279.261 215.659 279.173 C 215.659 279.173 212.804 279.689 214.535 278.231 C 214.535 278.231 215.225 269.579 215.054 267.525 C 215.054 267.525 213.928 266.583 214.706 264.612 L 214.62 258.017 C 214.62 258.017 212.976 258.274 212.025 258.017 C 212.025 258.017 210.899 269.41 211.334 271.464 C 211.334 271.464 211.506 275.319 211.765 277.034 C 211.765 277.034 213.063 277.975 211.678 278.574 C 211.678 278.574 211.075 278.831 211.075 279.261 C 211.075 279.261 210.468 279.773 209.256 279.516 C 209.256 279.516 207.179 279.603 209.344 277.376 C 209.344 277.376 210.381 271.893 209.515 266.07 C 209.515 266.07 206.833 257.674 206.833 255.449 C 206.833 255.449 203.461 252.963 203.719 246.709 C 203.719 246.709 203.2 245.681 202.595 243.371 C 202.595 243.371 201.297 237.717 202.075 235.319 C 202.075 235.319 201.729 232.319 201.297 231.379 C 201.297 231.379 198.615 231.379 198.181 230.264 C 198.181 230.264 197.317 228.636 196.799 228.21 C 196.799 228.21 196.018 226.837 197.577 227.267 C 197.577 227.267 200.344 228.036 200.519 228.722 C 200.519 228.722 201.469 229.15 200.863 228.036 C 200.863 228.036 199.306 225.124 195.585 224.784 C 195.585 224.784 191.866 224.267 192.385 221.785 C 192.385 221.785 192.214 220.414 192.904 219.987 C 192.904 219.987 191.933 215.681 192.463 214.748 C 192.463 214.748 193.336 210.221 196.193 210.82 C 196.193 210.82 197.317 208.422 198.788 208.849 C 198.788 208.849 199.48 209.45 198.527 209.879 C 198.527 209.879 196.971 209.963 196.712 215.36 C 196.712 215.36 199.393 214.503 196.539 216.388 L 196.319 217.508 C 196.319 217.508 197.317 217.588 198.096 216.816 C 198.096 216.816 200.084 215.787 198.181 217.93 C 198.181 217.93 197.058 219.213 196.366 219.3 C 196.366 219.3 196.539 222.469 196.971 223.497 C 196.971 223.497 200.172 224.697 200.344 225.124 C 200.344 225.124 201.297 225.725 201.125 224.097 C 201.125 224.097 200.863 219.557 201.729 221.612 C 201.729 221.612 202.075 224.183 202.247 225.297 C 202.247 225.297 202.766 226.837 203.2 227.181 Z " fill="rgb(205,151,3)"/><path d=" M 216.439 213.819 C 216.439 213.819 217.564 213.904 217.564 217.846 L 216.957 217.673 L 216.439 213.819 Z " fill="rgb(255,255,255)"/><line x1="217.476" y1="220.757" x2="217.217" y2="219.469"/><path d=" M 194.808 220.584 C 194.808 220.584 193.943 220.757 194.289 221.869 C 194.289 221.869 195.328 224.183 195.067 222.126 C 195.067 222.126 195.067 221.014 194.808 220.584 Z " fill="rgb(255,255,255)"/><path d=" M 196.106 211.677 C 196.106 211.677 193.336 212.706 194.896 216.301 C 194.896 216.301 195.415 216.301 195.067 214.845 C 195.067 214.845 195.5 212.618 195.759 213.218 C 195.759 213.218 196.022 212.535 196.106 211.677 Z " fill="rgb(255,255,255)"/><path d=" M 265.572 205.767 L 266.931 204.069 C 267.214 203.685 267.628 203.588 267.969 203.831 L 269.468 204.905 L 270.729 203.187 C 271.012 202.801 271.427 202.706 271.765 202.95 L 273.266 204.021 L 274.53 202.302 C 274.811 201.916 275.227 201.822 275.567 202.064 L 277.066 203.135 L 278.328 201.418 C 278.611 201.034 279.025 200.938 279.366 201.183 L 280.866 202.253 L 282.127 200.535 C 282.409 200.15 282.825 200.056 283.165 200.299 L 284.664 201.37 L 285.927 199.65 C 286.21 199.267 286.625 199.172 286.964 199.416 L 288.464 200.487 L 289.726 198.767 C 290.009 198.383 290.425 198.287 290.763 198.531 L 292.398 199.233 C 305.11 195.415 310.313 194.626 315.228 194.626 C 321.984 194.626 327.769 196.724 327.769 196.724 L 331.713 192.959 C 331.647 192.898 331.585 192.833 331.523 192.763 C 330.6 191.686 330.618 189.96 331.563 188.907 C 332.509 187.855 334.024 187.876 334.949 188.952 C 335.084 189.109 335.195 189.28 335.29 189.46 L 344.218 180.368 C 344.026 180.047 343.9 179.67 343.87 179.255 C 343.778 177.984 344.608 176.869 345.723 176.763 C 346.841 176.658 347.734 177.404 347.914 178.598 C 347.919 178.636 348.44 181.008 348.44 181.008 L 346.663 181.314 L 347.073 183.308 L 345.295 183.613 L 345.704 185.606 L 343.927 185.911 L 344.337 187.904 L 342.559 188.21 L 342.968 190.203 L 341.191 190.507 L 341.6 192.501 L 339.823 192.805 L 340.232 194.799 L 338.456 195.105 L 336.124 199.185 L 340.506 197.932 L 341.106 196.004 L 342.748 196.838 L 343.346 194.909 L 344.988 195.744 L 345.588 193.814 L 347.229 194.65 L 347.83 192.721 L 349.47 193.556 L 350.07 191.627 L 351.712 192.46 L 352.311 190.532 L 353.952 191.367 L 354.552 189.437 L 356.194 190.272 C 357.088 191.907 355.605 193.053 355.605 193.053 C 354.645 193.971 348.438 199.107 341.822 204.244 C 337.598 207.521 337.173 207.977 332.81 208.283 L 329.327 207.622 C 329.33 207.54 329.333 207.446 329.333 207.342 C 329.33 206.47 329.183 204.816 328.045 203.713 C 327.492 203.182 326.786 202.955 326.106 202.955 C 325.474 202.956 324.859 203.148 324.374 203.514 C 323.88 203.885 323.432 204.4 323.135 205.261 C 322.883 205.988 322.721 206.958 322.653 208.334 L 304.382 208.334 C 304.881 207.726 305.492 206.746 305.508 205.531 C 305.508 204.912 305.33 204.244 304.903 203.597 C 304.312 202.689 303.457 202.327 302.577 202.334 C 301.172 202.339 299.643 203.16 298.384 203.998 C 297.601 204.524 296.568 205.155 295.715 205.961 C 295.035 206.603 294.454 207.385 294.247 208.334 L 265.18 208.334 C 264.459 208.334 263.346 208.264 263.27 207.258 C 263.154 205.735 265.572 205.767 265.572 205.767 Z " fill="rgb(205,151,3)"/><path d=" M 334.604 212.021 L 326.541 212.021 L 326.528 212.021 L 326.511 212.023 C 326.508 212.022 326.392 212.037 326.185 212.037 C 325.755 212.039 324.985 211.965 324.362 211.582 C 323.742 211.19 323.25 210.566 323.24 209.25 L 323.24 209.146 C 323.276 207.375 323.45 206.254 323.708 205.519 C 323.968 204.785 324.29 204.424 324.716 204.095 C 325.078 203.82 325.587 203.653 326.107 203.653 C 326.668 203.653 327.232 203.844 327.65 204.247 C 328.564 205.113 328.721 206.552 328.719 207.342 C 328.719 207.67 328.696 207.866 328.696 207.866 L 328.654 208.203 L 335.421 209.487 L 335.447 209.487 C 335.447 209.49 335.779 209.49 336.234 209.595 C 336.689 209.698 337.249 209.908 337.666 210.286 C 338.101 210.678 338.469 211.337 338.467 212.093 C 338.465 212.562 338.332 213.088 337.959 213.655 C 337.922 213.445 337.863 213.218 337.765 212.998 C 337.601 212.602 337.27 212.23 336.787 212.086 C 336.861 212.295 336.907 212.564 336.838 212.852 C 336.778 213.107 336.628 213.375 336.32 213.625 C 336.32 213.625 336.313 213.166 336.061 212.72 C 335.903 212.439 335.424 212.021 334.604 212.021 Z " fill="rgb(205,151,3)"/><path d=" M 305.099 212.021 C 304.427 212.021 298.128 212.021 298.113 212.022 C 298.113 212.021 298.076 212.024 297.996 212.024 C 297.727 212.026 297.034 211.986 296.371 211.668 C 295.707 211.345 295.09 210.792 294.846 209.693 C 294.797 209.475 294.776 209.266 294.776 209.068 C 294.773 208.09 295.316 207.247 296.107 206.499 C 296.894 205.752 297.898 205.134 298.696 204.603 C 299.911 203.783 301.388 203.026 302.578 203.032 C 303.327 203.039 303.936 203.3 304.412 204.015 C 304.768 204.556 304.891 205.059 304.894 205.531 C 304.906 206.695 304.05 207.778 303.608 208.225 C 303.462 208.375 303.373 208.449 303.373 208.449 L 302.786 208.945 L 305.81 209.487 L 305.832 209.487 C 305.832 209.49 306.165 209.49 306.62 209.595 C 307.074 209.698 307.634 209.908 308.049 210.286 C 308.487 210.678 308.856 211.337 308.853 212.093 C 308.852 212.562 308.718 213.089 308.345 213.655 C 308.308 213.445 308.248 213.219 308.151 212.998 C 307.987 212.604 307.656 212.23 307.172 212.086 C 307.246 212.295 307.292 212.564 307.225 212.852 C 307.163 213.107 307.014 213.375 306.705 213.625 C 306.705 213.625 306.699 213.166 306.447 212.72 C 306.288 212.439 305.771 212.021 305.099 212.021 Z " fill="rgb(205,151,3)"/><g style="opacity:0.85;"><path d=" M 418.993 384.827 C 475 384.827 520.403 430.23 520.403 486.237 C 520.403 542.245 475 587.647 418.993 587.647 C 362.986 587.647 317.583 542.245 317.583 486.237 C 317.583 430.23 362.986 384.827 418.993 384.827 Z " fill="rgb(50,216,174)"/></g><path d=" M 327.343 312.46 C 366.391 312.46 398.045 344.114 398.045 383.162 C 398.045 422.209 366.391 453.863 327.343 453.863 C 288.296 453.863 256.642 422.209 256.642 383.162 C 256.642 344.114 288.296 312.46 327.343 312.46 Z " fill="rgb(50,216,174)" fill-opacity="0.6"/><path d=" M 488.267 302.938 C 519.689 302.938 545.161 328.411 545.161 359.833 C 545.161 391.254 519.689 416.727 488.267 416.727 C 456.845 416.727 431.372 391.254 431.372 359.833 C 431.372 328.411 456.845 302.938 488.267 302.938 Z " fill="rgb(50,216,174)" fill-opacity="0.75"/></g></g></svg>